# xmcd CD database file
#
# Track frame offsets:
#	150
#	19125
#	36830
#	55902
#
# Disc length: 978 seconds
#
# Revision: 0
# Processed by: cddbd v1.5.1PL0 Copyright (c) Steve Scherf et al.
# Submitted via: CDex 1.51
#
DISCID=2c03d004
DTITLE=FANATIC◇CRISIS - ダウンコード
DYEAR=2001
DGENRE=JPop
TTITLE0=ダウンコード
TTITLE1=夢見が丘
TTITLE2=ダウンコード <Vox Less Ver.>
TTITLE3=夢見が丘 <Vox Lexx Ver.>
EXTD=YEAR: 2001
EXTT0=
EXTT1=
EXTT2=
EXTT3=
PLAYORDER=
